<?xml version="1.0" encoding="utf-8"?>
<!-- Generator: Adobe Illustrator 25.4.1, SVG Export Plug-In . SVG Version: 6.00 Build 0)  -->
<svg version="1.1" xmlns="http://www.w3.org/2000/svg" xmlns:xlink="http://www.w3.org/1999/xlink" x="0px" y="0px"
	 viewBox="0 0 2500 2500" enable-background="new 0 0 2500 2500" xml:space="preserve">

<style>
    svg * {
        transition: fill .1s ease-out, opacity .1s ease-out;
    }
	#Kodakmid {
		opacity: 0;
	}

	#Kodakbig {
		opacity: 0;
	}

    @media all and (min-width: 700px) {
        #Kodakbig { 
            opacity: 1; 
        }
    }
    @media all and (min-width: 600px) and (max-width:700px) {
        #Kodakmid {
            opacity: 1;
        }
    }
    @media all and (min-width: 600px) {
        #Kodaksmall {
            opacity: 0;
        }
    }
</style>

<g id="Kodakbig">
	<g>
		<path fill-rule="evenodd" clip-rule="evenodd" fill="#CF4334" d="M831.46,1247.39H341.55l267.09-226.61
			c7.39-6.31,16.77-9.82,26.5-9.91h155.53c22.49,0.07,40.71,18.29,40.78,40.78v195.74H831.46z M831.46,1303.01v27.95H424.27
			l-32.92-27.95H831.46z M829.12,1470.21c-5.54,15.71-20.67,26.77-38.44,26.77H635.15c-9.61,0-19.51-3.5-26.5-9.6l-20.09-17.17
			H829.12L829.12,1470.21z M831.46,1428.54H539.03l32.92,27.96l259.51-0.27L831.46,1428.54L831.46,1428.54z M831.46,1386.62H489.81
			l32.92,27.94h308.73V1386.62z M831.46,1344.66H440.59l32.9,27.96h357.97V1344.66z M831.46,1261.07H341.84l32.92,27.96h456.7
			V1261.07z M1977.57,1489.4h56.51l18.34-141.25c-0.27,11.93,0.27,20.67,1.17,25.33l12.81,115.92h43.11l51.55-115.03
			c2.61-5.55,5.82-14.29,9.33-26.21l-28.27,141.25h55.35l31.46-191.04h-76.6l-47.78,103.1c-3.5,6.41-5.24,14.57-6.99,23.31v-8.74
			c0.34-4.85,0.25-9.73-0.27-14.57l-11.65-103.1h-75.74L1977.57,1489.4L1977.57,1489.4z M1810.96,1489.4h151.46l8.16-41.33h-88.84
			l25.06-149.71h-62.62L1810.96,1489.4L1810.96,1489.4z M1734.36,1489.4h62.62l32.35-191.04h-62.64L1734.36,1489.4L1734.36,1489.4z
			 M1580.88,1469.9H916.5v27.98h402.83l2.02-12.83l129.91-0.3l1.17-6.41l126.99-0.29l-2.02,11.35h62.03l10.76-68.73h64.37
			l7.87-45.43h-64.37l5.53-30.58h82.15l7.86-46.3h-143l-0.58,4.36l-693.51,0.3v27.95h432.83l2.32-12.8h129.91l1.17-7.29h125.53
			l-5.82,33.79H916.5v27.96h425.84l2.02-12.81l129.62,0.29l1.47-7.57h125.82l-5.82,33.79H916.5v27.96h418.26l2.05-12.53h129.59
			l1.47-7.55h126.1l-5.82,33.76l-671.65,0.3v27.98h410.1l2.32-12.83h129.32l1.75-7.29h126.7L1580.88,1469.9L1580.88,1469.9z
			 M473.49,1470.21l4.95,6.99c1.71,2.04,2.64,4.62,2.62,7.28c-0.09,6.99-5.82,12.59-12.81,12.52H311.84
			c-17.77,0-32.62-11.08-38.44-27.08L473.49,1470.21z M443.21,1428.54H271.06v27.96H463.3L443.21,1428.54z M412.63,1386.62H271.06
			v27.94h161.66L412.63,1386.62L412.63,1386.62z M382.33,1344.66H271.06v27.96h131.37L382.33,1344.66z M351.75,1303.01h-80.68v27.95
			h101.07L351.75,1303.01z M341.55,1289.03h-70.49v-27.96h52.44c0.87,3.19,2.32,6.11,4.36,8.74L341.55,1289.03L341.55,1289.03z
			 M323.2,1247.39h-52.14v-195.74c0.07-22.49,18.29-40.71,40.78-40.78h156.42c6.99,0,12.81,5.82,12.81,12.81
			c0,2.33-1.17,4.95-2.62,7.29l-150.58,207.37C325.7,1241,324.11,1244.08,323.2,1247.39L323.2,1247.39z"/>
		<path fill-rule="evenodd" clip-rule="evenodd" d="M1109.61,1124.17c-1.26,9.17-1.94,18.41-2.04,27.66
			c0,9.03,1.17,19.22,2.04,27.38c0.29,1.17,0.29,2.33,0.58,3.5c4.66,28.26,31.75,53.01,60.58,55.06c6.71,0.29,14.27,0.57,21.26,0.57
			c7.28,0,14.57,0,20.09-0.29c29.71-2.04,57.09-26.51,61.75-55.34c1.17-8.44,2.61-20.39,2.61-30.87c0-9.91-1.44-23.59-2.92-31.75
			c-4.94-28.25-32.32-51.85-61.15-54.17c-6.79-0.35-13.59-0.55-20.39-0.58c-7.09-0.25-14.19-0.05-21.26,0.58
			c-28.26,2.33-55.34,26.21-60.3,53.89C1110.19,1120.97,1109.91,1122.72,1109.61,1124.17z M1569.23,1201.06
			c3.19-0.29,6.11-0.87,8.43-2.04c15.45-7.29,15.15-26.21,15.73-40.78c0-0.87-1.44-3.79-3.5-3.79c-4.94,0-10.76,0.87-14.57,1.17
			c-2.09,0.21-4.15,0.7-6.11,1.45c-6.72,2.33-13.98,7.29-18.65,11.93c-6.41,6.41-8.16,21.27-0.58,27.38
			C1554.35,1200.19,1562.24,1201.64,1569.23,1201.06z M1569.23,1129.7l13.68-2.62c11.96-2.04,13.71-23,1.17-26.78
			c-4.83-1.39-9.83-2.07-14.85-2.04c-3.54,0.09-7.06,0.58-10.49,1.45c-7.57,1.45-15.15,6.41-16.32,14.57h-38.73v-43.98h89.43
			c31.15,0,56.48,25.06,56.48,55.93v107.48h-42.23l-9.01-13.4c-8.48,7.13-18.43,12.3-29.13,15.15c-7.2,2.08-14.65,3.16-22.14,3.2
			c-29.99,0-60.59-14.86-60.59-48.94c0-33.2,34.68-51.84,62.06-56.51L1569.23,1129.7L1569.23,1129.7z M1839.52,1233.69l-62.35-99.32
			l49.25-64.07h-50.69l-46.3,60.58v-128.75h-51.85v231.56h51.85v-86.79l54.46,86.79H1839.52L1839.52,1233.69z M1381.36,1202.24
			c2.61,0,5.53-0.58,7.85-1.17c8.5-2.43,15.4-8.67,18.65-16.89c1.6-4.04,2.77-8.24,3.5-12.53c0.27-5.53,1.17-13.1,1.17-19.51
			c0-6.99-0.88-16.02-1.47-22.14c-0.71-3.59-1.78-7.11-3.19-10.49c-3.21-8.14-9.97-14.36-18.34-16.9c-2.67-0.66-5.41-1.05-8.16-1.15
			h-0.3c-2.33,0-4.94,0.58-6.99,0.87c-8.78,2.33-15.93,8.71-19.22,17.18c-1.53,3.23-2.6,6.67-3.19,10.19
			c-0.58,6.41-1.47,15.43-1.47,22.42c0,6.41,0.88,13.4,0.88,18.94c0.86,4.36,2.33,9.61,3.77,13.1c3.29,8.47,10.44,14.86,19.22,17.18
			c2.05,0.29,4.66,0.88,6.99,0.88H1381.36z M1381.36,1065.63c11.47,1.58,22.48,5.55,32.32,11.65v-75.15h50.97v231.56h-39.31
			l-7.57-13.4c-10.41,8.78-22.98,14.61-36.41,16.9c-3.86,0.58-7.75,0.87-11.65,0.87c-3.22,0-6.99-0.29-9.91-0.58
			c-29.42-3.2-53.88-25.64-60.59-54.76c-1.17-9.61-2.61-20.39-2.61-30.87c0-9.91,1.44-22.71,2.92-32.04
			c6.99-28.25,31.44-50.1,60.28-53.89c3.77-0.29,8.43-0.87,12.52-0.87C1375.24,1065.04,1378.15,1065.34,1381.36,1065.63
			L1381.36,1065.63z M1192.04,1202.24c-15.15,0-30.28-16.9-30.28-31.17c0-4.95-0.87-12.53-0.87-18.94c0-6.99,1.75-16.6,1.75-22.42
			c0-13.1,16.6-28.25,29.42-28.25c14.57,0,29.71,14.57,29.71,28.55c0,4.94,1.45,15.14,1.45,22.14c0,6.41-0.87,14.57-0.87,19.51
			C1222.33,1186.79,1207.18,1202.24,1192.04,1202.24z M1109.61,1230.49l2.33,3.2h-64.95l-70.19-108.93
			c-0.87-1.42-2.41-2.3-4.07-2.33c-2.62,0-4.66,2.33-4.66,4.94v106.31h-51.55v-231.55h51.55v90.88c0,2.33,2.04,4.66,4.66,4.66
			c1.45,0,3.2-0.87,3.79-2.04l68.16-93.5H1107l-76.6,104.85L1109.61,1230.49L1109.61,1230.49z"/>
	</g>
</g>
<g id="Kodakmid">
	<g>
		<path fill-rule="evenodd" clip-rule="evenodd" fill="#CF4334" d="M785.31,1243.43H500.44l155.31-131.77
			c4.3-3.67,9.75-5.71,15.41-5.76h90.44c13.08,0.04,23.67,10.63,23.71,23.71L785.31,1243.43L785.31,1243.43z M785.31,1275.78v16.25
			H548.54l-19.14-16.25H785.31z M783.96,1373c-3.22,9.13-12.02,15.57-22.35,15.57h-90.44c-5.59,0-11.34-2.04-15.41-5.58l-11.68-9.99
			H783.96L783.96,1373z M785.31,1348.77H615.27l19.14,16.26l150.9-0.16V1348.77L785.31,1348.77z M785.31,1324.39H586.65l19.14,16.25
			h179.53V1324.39z M785.31,1300H558.02l19.13,16.26h208.15V1300z M785.31,1251.39H500.6l19.14,16.26h265.57V1251.39z M577.16,1373
			l2.88,4.07c1,1.18,1.54,2.68,1.52,4.23c-0.05,4.07-3.38,7.32-7.45,7.28h-90.95c-10.33,0-18.97-6.44-22.35-15.75L577.16,1373z
			 M559.55,1348.77h-100.1v16.26h111.79L559.55,1348.77z M541.76,1324.39h-82.32v16.25h94L541.76,1324.39L541.76,1324.39z
			 M524.15,1300h-64.7v16.26h76.39L524.15,1300z M506.36,1275.78h-46.92v16.25h58.77L506.36,1275.78z M500.44,1267.65h-40.99v-16.26
			h30.49c0.51,1.86,1.35,3.55,2.53,5.08L500.44,1267.65L500.44,1267.65z M489.76,1243.43h-30.32v-113.82
			c0.04-13.08,10.63-23.67,23.71-23.71h90.95c4.07,0,7.45,3.39,7.45,7.45c0,1.36-0.68,2.88-1.52,4.24l-87.56,120.59
			C491.22,1239.72,490.29,1241.51,489.76,1243.43L489.76,1243.43z"/>
		<path fill-rule="evenodd" clip-rule="evenodd" d="M1159.75,1255.95c-1.52,11.07-2.34,22.21-2.46,33.38
			c0,10.89,1.41,23.19,2.46,33.04c0.34,1.41,0.34,2.82,0.7,4.23c5.62,34.1,38.31,63.97,73.11,66.44c8.09,0.34,17.22,0.69,25.65,0.69
			c8.78,0,17.58,0,24.24-0.34c35.86-2.46,68.9-31.99,74.51-66.78c1.41-10.19,3.15-24.6,3.15-37.25c0-11.96-1.74-28.47-3.52-38.31
			c-5.96-34.09-39-62.57-73.79-65.37c-8.19-0.43-16.4-0.66-24.6-0.7c-8.56-0.3-17.12-0.06-25.65,0.7
			c-34.1,2.82-66.78,31.63-72.76,65.03C1160.46,1252.08,1160.11,1254.2,1159.75,1255.95z M1714.39,1348.73
			c3.85-0.34,7.37-1.05,10.17-2.46c18.64-8.8,18.28-31.63,18.98-49.21c0-1.05-1.74-4.57-4.23-4.57c-5.96,0-12.99,1.05-17.58,1.41
			c-2.52,0.25-5,0.84-7.37,1.75c-8.11,2.82-16.87,8.8-22.51,14.4c-7.73,7.73-9.84,25.67-0.7,33.04
			C1696.44,1347.68,1705.95,1349.43,1714.39,1348.73z M1714.39,1262.62l16.51-3.16c14.43-2.46,16.54-27.75,1.41-32.32
			c-5.82-1.68-11.86-2.5-17.92-2.46c-4.27,0.11-8.52,0.7-12.66,1.75c-9.14,1.75-18.28,7.73-19.69,17.58h-46.73v-53.07h107.91
			c37.59,0,68.16,30.24,68.16,67.49v129.7h-50.96l-10.88-16.17c-10.23,8.6-22.24,14.84-35.15,18.28
			c-8.69,2.51-17.68,3.81-26.72,3.87c-36.18,0-73.12-17.94-73.12-59.05c0-40.07,41.85-62.56,74.89-68.19L1714.39,1262.62
			L1714.39,1262.62z M2040.55,1388.11l-75.23-119.85l59.43-77.32h-61.16l-55.87,73.11v-155.37h-62.57v279.43h62.57v-104.74
			l65.72,104.74H2040.55L2040.55,1388.11z M1487.69,1350.15c3.15,0,6.67-0.7,9.47-1.41c10.26-2.93,18.58-10.46,22.51-20.38
			c1.93-4.88,3.35-9.95,4.23-15.12c0.33-6.67,1.41-15.81,1.41-23.54c0-8.44-1.06-19.33-1.77-26.72c-0.86-4.34-2.15-8.58-3.85-12.66
			c-3.88-9.82-12.03-17.33-22.13-20.39c-3.23-0.8-6.52-1.27-9.84-1.39h-0.36c-2.82,0-5.96,0.7-8.44,1.05
			c-10.6,2.81-19.22,10.52-23.19,20.74c-1.85,3.9-3.14,8.04-3.85,12.3c-0.7,7.73-1.77,18.62-1.77,27.06
			c0,7.73,1.06,16.17,1.06,22.85c1.03,5.26,2.82,11.6,4.55,15.81c3.97,10.22,12.59,17.93,23.19,20.74c2.47,0.34,5.62,1.06,8.44,1.06
			H1487.69z M1487.69,1185.3c13.84,1.91,27.13,6.7,39,14.05v-90.68h61.51v279.43h-47.44l-9.14-16.17
			c-12.56,10.59-27.73,17.64-43.93,20.39c-4.65,0.7-9.35,1.05-14.05,1.05c-3.88,0-8.44-0.34-11.96-0.7
			c-35.5-3.87-65.01-30.94-73.12-66.08c-1.41-11.6-3.15-24.6-3.15-37.25c0-11.96,1.74-27.4,3.52-38.66
			c8.44-34.09,37.94-60.46,72.75-65.03c4.55-0.34,10.17-1.05,15.1-1.05C1480.3,1184.6,1483.81,1184.96,1487.69,1185.3
			L1487.69,1185.3z M1259.23,1350.15c-18.28,0-36.54-20.39-36.54-37.61c0-5.98-1.05-15.12-1.05-22.85c0-8.44,2.11-20.03,2.11-27.06
			c0-15.81,20.03-34.09,35.5-34.09c17.58,0,35.86,17.58,35.86,34.45c0,5.96,1.75,18.26,1.75,26.72c0,7.73-1.05,17.58-1.05,23.54
			C1295.78,1331.51,1277.5,1350.15,1259.23,1350.15z M1159.75,1384.24l2.82,3.87h-78.38l-84.7-131.45c-1.05-1.71-2.9-2.77-4.91-2.82
			c-3.16,0-5.62,2.82-5.62,5.96v128.29h-62.21v-279.42h62.21v109.67c0,2.82,2.46,5.62,5.62,5.62c1.75,0,3.87-1.05,4.57-2.46
			l82.25-112.83h75.22l-92.43,126.52L1159.75,1384.24L1159.75,1384.24z"/>
	</g>
</g>
<g id="Kodaksmall">
	<g>
		<path fill-rule="evenodd" clip-rule="evenodd" fill="#CF4334" d="M1411.33,1246.23h-282.07l153.78-130.47
			c4.26-3.64,9.66-5.66,15.26-5.71h89.55c12.95,0.04,23.44,10.53,23.48,23.48L1411.33,1246.23L1411.33,1246.23z M1411.33,1278.26
			v16.09h-234.44l-18.95-16.09H1411.33z M1409.98,1374.52c-3.19,9.04-11.9,15.41-22.13,15.41h-89.55c-5.53,0-11.23-2.02-15.26-5.53
			l-11.57-9.89L1409.98,1374.52L1409.98,1374.52z M1411.33,1350.53h-168.37l18.95,16.1l149.42-0.16L1411.33,1350.53L1411.33,1350.53
			z M1411.33,1326.4h-196.71l18.95,16.08h177.75V1326.4z M1411.33,1302.24h-225.05l18.94,16.1h206.1V1302.24z M1411.33,1254.11
			h-281.9l18.95,16.1h262.95V1254.11z M1205.23,1374.52l2.85,4.03c0.99,1.17,1.52,2.66,1.51,4.19c-0.05,4.03-3.35,7.25-7.38,7.21
			h-90.06c-10.23,0-18.78-6.38-22.13-15.59L1205.23,1374.52z M1187.79,1350.53h-99.12v16.1h110.68L1187.79,1350.53z M1170.18,1326.4
			h-81.51v16.08h93.07L1170.18,1326.4L1170.18,1326.4z M1152.74,1302.24h-64.06v16.1h75.64L1152.74,1302.24z M1135.13,1278.26
			h-46.45v16.09h58.19L1135.13,1278.26z M1129.26,1270.21h-40.59v-16.1h30.19c0.5,1.84,1.34,3.52,2.51,5.03L1129.26,1270.21
			L1129.26,1270.21z M1118.69,1246.23h-30.02v-112.7c0.04-12.95,10.53-23.44,23.48-23.48h90.06c4.03,0,7.38,3.35,7.38,7.38
			c0,1.34-0.67,2.85-1.51,4.2l-86.7,119.4C1120.13,1242.56,1119.21,1244.33,1118.69,1246.23L1118.69,1246.23z"/>
	</g>
</g>
</svg>
